<svg xmlns="http://www.w3.org/2000/svg" viewBox="0 0 64 64" fill="none">
  <circle cx="32" cy="32" r="28" fill="#dcfce7"/>
  <path d="M20 44V20l8 8 4-4 4 4 8-8v24H20z" fill="#16a34a" opacity="0.2"/>
  <path d="M24 38l6-8 4 5 6-9 6 12H24z" fill="#16a34a"/>
  <circle cx="26" cy="26" r="3" fill="#16a34a"/>
  <rect x="18" y="16" rx="2" width="28" height="32" stroke="#16a34a" stroke-width="2" fill="none"/>
  <path d="M38 16v-4a2 2 0 00-2-2h-8a2 2 0 00-2 2v4" stroke="#16a34a" stroke-width="2" fill="none"/>
  <circle cx="44" cy="44" r="10" fill="white" stroke="#16a34a" stroke-width="2"/>
  <path d="M41 44h6M44 41v6" stroke="#16a34a" stroke-width="2" stroke-linecap="round"/>
</svg>